# xmcd
#
# Track frame offsets: 
#        150
#        13774
#        35980
#        52848
#        74306
#        97825
#        120383
#        137702
#        157177
#        177000
#        194716
#        220351
#
# Disc length: 3227 seconds
#
# Revision: 0
# Processed by: cddbd v1.5.2PL0 Copyright (c) Steve Scherf et al.
# Submitted via: ExactAudioCopy v0.95a5
#
DISCID=ac0c990c
DTITLE=Francine Reed - Blues Collection
DYEAR=1900
DGENRE=Blues
TTITLE0=Why I Don't Know
TTITLE1=Leanin' Town
TTITLE2=One Monkey (Don't Stop No Show)
TTITLE3=Gathering Up My Love
TTITLE4=Trouble In Mind
TTITLE5=Crack The Bone
TTITLE6=I Want You To Love Me
TTITLE7=What Is That Light?
TTITLE8=Grady's Song
TTITLE9=Evil Gal
TTITLE10=For Your Precious Love
TTITLE11=Wild Women
EXTD=
EXTT0=
EXTT1=
EXTT2=
EXTT3=
EXTT4=
EXTT5=
EXTT6=
EXTT7=
EXTT8=
EXTT9=
EXTT10=
EXTT11=
PLAYORDER=
